# xmcd
#
# Track frame offsets:
#	150
#	19562
#	35535
#	55425
#	68748
#	85523
#	102043
#	117394
#	134840
#	150251
#	167212
#	180003
#	199419
#	210835
#	232322
#
# Disc length: 3315 seconds
#
# Revision: 1
# Processed by: cddbd v1.5.1PL2 Copyright (c) Steve Scherf et al.
# Submitted via: audiograbber 1.80
#
DISCID=c20cf10f
DTITLE=Garth Brooks - The Hits
DYEAR=1900
DGENRE=
TTITLE0=Friends In Low Places
TTITLE1=Burning Bridges
TTITLE2=The River
TTITLE3=Much To Young (To Feel This Damn Old)
TTITLE4=The Thunder Rolls
TTITLE5=If Tomorrow Never Comes
TTITLE6=Unanswered Prayers
TTITLE7=Rodeo
TTITLE8=What She's Doing Now
TTITLE9=We Shall Be Free
TTITLE10=Papa Loved Mama
TTITLE11=Shameless
TTITLE12=Tho Off A Kind, Workin' On A Full House
TTITLE13=That Summer
TTITLE14=The Dance
EXTD=
EXTT0=
EXTT1=
EXTT2=
EXTT3=
EXTT4=
EXTT5=
EXTT6=
EXTT7=
EXTT8=
EXTT9=
EXTT10=
EXTT11=
EXTT12=
EXTT13=
EXTT14=
PLAYORDER=
